<?xml version="1.0" encoding="UTF-8" standalone="no"?>
<svg
   width="200.92101"
   height="30"
   viewBox="0 0 200.92101 30"
   version="1.1"
   id="svg31"
   sodipodi:docname="cards.svg"
   inkscape:version="1.4 (86a8ad7, 2024-10-11)"
   xmlns:inkscape="http://www.inkscape.org/namespaces/inkscape"
   xmlns:sodipodi="http://sodipodi.sourceforge.net/DTD/sodipodi-0.dtd"
   xmlns="http://www.w3.org/2000/svg"
   xmlns:svg="http://www.w3.org/2000/svg">
  <defs
     id="defs31" />
  <sodipodi:namedview
     id="namedview31"
     pagecolor="#ffffff"
     bordercolor="#000000"
     borderopacity="0.25"
     inkscape:showpageshadow="2"
     inkscape:pageopacity="0.0"
     inkscape:pagecheckerboard="0"
     inkscape:deskcolor="#d1d1d1"
     inkscape:zoom="2.3429508"
     inkscape:cx="89.417156"
     inkscape:cy="28.383011"
     inkscape:window-width="1920"
     inkscape:window-height="1017"
     inkscape:window-x="-8"
     inkscape:window-y="-8"
     inkscape:window-maximized="1"
     inkscape:current-layer="svg31" />
  <g
     id="g7"
     transform="matrix(1.4989491,0,0,1.4989491,0.0105468,0.0106378)">
    <rect
       y="1.7999901"
       width="32"
       height="16"
       fill="#f6f6f6"
       id="rect1"
       x="0" />
    <path
       d="M 29.6,0 H 1.6 A 1.72063,1.72063 0 0 0 0,1.6 V 4 H 32 V 2.4 A 2.12132,2.12132 0 0 0 29.6,0 Z"
       fill="#1d79cc"
       id="path1" />
    <path
       d="m 0,16 v 1.602 A 2.12071,2.12071 0 0 0 2.4,20 H 29.6 A 2.12071,2.12071 0 0 0 32,17.602 V 16 Z"
       fill="#d97b16"
       id="path2" />
    <path
       d="m 22.333,5.934 a 5.18864,5.18864 0 0 0 -2,-0.334 c -2.267,0 -3.8,1.135 -3.8,2.801 0,1.199 1.133,1.867 2,2.334 0.867,0.399 1.2,0.666 1.2,1.066 0,0.6 -0.733,0.801 -1.333,0.801 A 4.36826,4.36826 0 0 1 16.267,12.134 L 15.867,12 15.534,13.866 a 6.33574,6.33574 0 0 0 2.534,0.467 c 2.4,0 3.933,-1.133 3.933,-2.866 0,-0.934 -0.6,-1.667 -1.933,-2.333 -0.8,-0.399 -1.267,-0.667 -1.267,-1.067 0,-0.332 0.399,-0.732 1.267,-0.732 a 3.67545,3.67545 0 0 1 1.667,0.334 l 0.2,0.066 0.398,-1.801"
       fill="#1d79cc"
       id="path3" />
    <path
       d="M 28.133,5.732 H 26.4 a 1.13444,1.13444 0 0 0 -1.2,0.733 l -3.333,7.8 h 2.4 c 0,0 0.4,-1.066 0.467,-1.267 h 2.867 c 0.066,0.267 0.267,1.267 0.267,1.267 H 30 Z m -2.8,5.468 c 0.2,-0.468 0.933,-2.4 0.933,-2.4 0,0 0.2,-0.467 0.333,-0.8 l 0.133,0.732 c 0,0 0.4,2 0.533,2.468 z"
       fill="#1d79cc"
       id="path4" />
    <path
       d="m 11.867,14.268 1.4,-8.468 h 2.267 l -1.4,8.468 z"
       fill="#1d79cc"
       id="path5" />
    <path
       d="m 9.933,5.732 -2.2,5.801 -0.267,-1.2 A 6.42317,6.42317 0 0 0 4.333,6.8 l 2,7.4 h 2.4 L 12.266,5.732 H 9.933"
       fill="#1d79cc"
       id="path6" />
    <path
       d="M 5.667,5.732 H 2 v 0.201 a 7.37053,7.37053 0 0 1 5.467,4.465 L 6.667,6.533 C 6.6,5.934 6.2,5.8 5.667,5.732"
       fill="#d97b16"
       id="path7" />
  </g>
  <g
     id="g20"
     transform="matrix(1.4989491,0,0,1.4989491,0.0105468,0.0106378)">
    <path
       d="m 63.6,0 h -28 A 1.72063,1.72063 0 0 0 34,1.6 v 16 A 2.12132,2.12132 0 0 0 36.4,20 H 63.6 A 2.12071,2.12071 0 0 0 66,17.602 V 2.4 A 2.12133,2.12133 0 0 0 63.6,0 Z"
       fill="#265697"
       id="path8" />
    <path
       d="m 63.933,10.134 a 8.33326,8.33326 0 1 1 -16.666,0 v 0 a 8.33326,8.33326 0 1 1 16.666,0 z"
       fill="#dfac16"
       id="path9" />
    <path
       d="m 44.333,1.667 a 8.337,8.337 0 0 0 -8.267,8.399 8.34973,8.34973 0 0 0 8.333,8.4 8.09448,8.09448 0 0 0 5.6,-2.199 v 0 a 5.77691,5.77691 0 0 0 0.866,-0.935 h -1.733 a 6.86465,6.86465 0 0 1 -0.6,-0.866 h 2.934 a 4.0763,4.0763 0 0 0 0.466,-0.934 H 48 a 4.58222,4.58222 0 0 1 -0.333,-0.866 h 4.6 a 8.89915,8.89915 0 0 0 0.4,-2.667 8.29569,8.29569 0 0 0 -0.2,-1.8 H 47.4 a 4.27561,4.27561 0 0 1 0.267,-0.867 h 4.6 C 52.134,7 52.067,6.732 51.934,6.4 h -3.867 a 3.54035,3.54035 0 0 1 0.467,-0.867 h 2.934 A 8.14438,8.14438 0 0 0 50.801,4.599 H 49.134 A 5.46237,5.46237 0 0 1 50,3.732 8.90693,8.90693 0 0 0 44.333,1.667 Z"
       fill="#bf3126"
       id="path10" />
    <path
       d="m 47.4,12.268 0.133,-0.734 h -0.2 C 47,11.532 47,11.398 47,11.268 l 0.267,-1.533 h 0.467 l 0.133,-0.867 h -0.533 l 0.067,-0.533 h -0.867 c 0,0 -0.533,2.934 -0.533,3.334 a 0.63846,0.63846 0 0 0 0.733,0.732 c 0.332,-0.068 0.599,-0.133 0.666,-0.133 z"
       fill="#ffffff"
       id="path11" />
    <path
       d="m 47.667,10.8 a 1.41474,1.41474 0 0 0 1.533,1.601 2.31656,2.31656 0 0 0 0.934,-0.133 l 0.133,-0.867 a 2.72273,2.72273 0 0 1 -0.934,0.201 c -0.933,0 -0.8,-0.734 -0.8,-0.734 h 1.8 A 6.48234,6.48234 0 0 0 50.467,10.067 1.19741,1.19741 0 0 0 49.2,8.733 C 48.333,8.732 47.667,9.667 47.667,10.8 Z m 1.6,-1.267 c 0.533,0 0.4,0.601 0.4,0.601 h -1 a 0.60919,0.60919 0 0 1 0.6,-0.601 z"
       fill="#ffffff"
       id="path12" />
    <path
       d="m 54.866,12.268 0.134,-1 a 2.59676,2.59676 0 0 1 -0.733,0.199 c -0.6,0 -0.867,-0.467 -0.867,-1 C 53.4,9.4 53.933,8.8 54.533,8.8 a 1.39249,1.39249 0 0 1 0.8,0.267 l 0.134,-0.933 a 3.38634,3.38634 0 0 0 -1,-0.2 c -1,0 -2,0.866 -2,2.601 0,1.134 0.533,1.866 1.6,1.866 0.333,-0.068 0.799,-0.133 0.799,-0.133 z"
       fill="#ffffff"
       id="path13" />
    <path
       d="m 42.533,8.732 a 2.971,2.971 0 0 0 -1.066,0.201 l -0.134,0.799 a 3.26512,3.26512 0 0 1 0.934,-0.133 c 0.333,0 0.6,0.066 0.6,0.334 v 0.199 h -0.399 c -0.733,0 -1.601,0.333 -1.601,1.333 a 0.81412,0.81412 0 0 0 0.867,0.933 1.4736,1.4736 0 0 0 0.933,-0.399 v 0.334 h 0.8 L 43.8,9.866 A 1.13961,1.13961 0 0 0 42.533,8.732 Z m 0.2,2 c 0,0.134 -0.067,0.867 -0.6,0.867 A 0.3112,0.3112 0 0 1 41.8,11.265 c 0,-0.266 0.133,-0.533 0.8,-0.533 z"
       fill="#ffffff"
       id="path14" />
    <path
       d="M 44.6,12.333 A 1.12874,1.12874 0 0 0 45.933,11.2 c 0,-1.134 -1.067,-0.867 -1.067,-1.334 0,-0.199 0.2,-0.267 0.467,-0.267 0.134,0 0.6,0.066 0.6,0.066 l 0.133,-0.801 a 4.54653,4.54653 0 0 0 -0.8,-0.066 c -0.667,0 -1.333,0.268 -1.333,1.2 0,1 1.133,0.935 1.133,1.333 0,0.268 -0.333,0.334 -0.533,0.334 a 2.89358,2.89358 0 0 1 -0.8,-0.134 l -0.134,0.8 C 43.6,12.2 43.866,12.333 44.6,12.333 Z"
       fill="#ffffff"
       id="path15" />
    <path
       d="M 62.2,8 62,9.2 A 1.17328,1.17328 0 0 0 61.133,8.732 c -0.8,0 -1.467,1 -1.467,2.134 0,0.733 0.333,1.467 1.067,1.467 a 1.00126,1.00126 0 0 0 0.8,-0.399 l -0.066,0.334 h 0.866 L 63,8 Z m -0.4,2.333 c 0,0.467 -0.2,1.134 -0.733,1.134 C 60.734,11.467 60.6,11.2 60.6,10.8 60.6,10.134 60.933,9.667 61.267,9.667 61.6,9.6 61.8,9.866 61.8,10.333 Z"
       fill="#ffffff"
       id="path16" />
    <path
       d="m 37.733,12.268 0.533,-3.201 0.066,3.201 h 0.6 l 1.133,-3.201 -0.533,3.201 h 0.934 L 41.133,8 h -1.4 l -0.8,2.667 L 38.866,8 H 37.6 l -0.733,4.268 z"
       fill="#ffffff"
       id="path17" />
    <path
       d="M 51.4,12.268 C 51.667,10.8 51.733,9.6 52.333,9.8 a 4.01792,4.01792 0 0 1 0.333,-1.065 h -0.2 c -0.4,0 -0.667,0.533 -0.667,0.533 l 0.066,-0.533 h -0.8 L 50.533,12.2 H 51.4 Z"
       fill="#ffffff"
       id="path18" />
    <path
       d="m 56.933,8.732 a 2.98,2.98 0 0 0 -1.067,0.201 l -0.133,0.799 a 3.262,3.262 0 0 1 0.933,-0.133 c 0.333,0 0.6,0.066 0.6,0.334 v 0.199 h -0.4 c -0.733,0 -1.6,0.333 -1.6,1.333 a 0.81373,0.81373 0 0 0 0.867,0.933 1.47027,1.47027 0 0 0 0.933,-0.399 v 0.334 h 0.8 L 58.199,9.866 A 1.16692,1.16692 0 0 0 56.933,8.732 Z m 0.133,2 c 0,0.134 -0.066,0.867 -0.6,0.867 a 0.31121,0.31121 0 0 1 -0.333,-0.334 c 0,-0.266 0.133,-0.533 0.8,-0.533 z"
       fill="#ffffff"
       id="path19" />
    <path
       d="M 58.866,12.268 C 59.133,10.8 59.2,9.6 59.8,9.8 a 4.00371,4.00371 0 0 1 0.333,-1.066 h -0.2 c -0.4,0 -0.667,0.533 -0.667,0.533 l 0.066,-0.533 h -0.8 L 58,12.2 h 0.866 z"
       fill="#ffffff"
       id="path20" />
  </g>
  <g
     id="g28"
     transform="matrix(1.4989491,0,0,1.4989491,0.0105468,0.0106378)">
    <path
       d="M 97.539,0 H 69.598 A 1.71955,1.71955 0 0 0 68,1.6 v 16 A 2.11938,2.11938 0 0 0 70.395,20 H 97.54 a 2.11876,2.11876 0 0 0 2.395,-2.398 V 2.4 A 2.11968,2.11968 0 0 0 97.539,0 Z"
       fill="#1e77e0"
       id="path21" />
    <g
       id="g27">
      <path
         d="M 84.3,6.732 A 0.37811,0.37811 0 0 0 84.3,6.066 0.85319,0.85319 0 0 0 83.9,6 h -1.13 v 0.866 h 1.064 A 3.85422,3.85422 0 0 0 84.3,6.732 Z"
         fill="#ffffff"
         id="path22" />
      <polygon
         points="70.729,7.333 70.063,5.8 69.464,7.333 "
         fill="#ffffff"
         id="polygon22" />
      <polygon
         points="90.887,7.333 92.15,7.333 91.552,5.8 "
         fill="#ffffff"
         id="polygon23" />
      <path
         d="M 75.852,9.667 76.117,9 v 0.667 h 7.518 V 8.268 h 0.133 c 0.133,0 0.133,0 0.133,0.198 V 9.667 H 87.76 V 9.333 a 2.79529,2.79529 0 0 0 1.465,0.334 h 1.662 L 91.221,8.8 h 0.797 l 0.334,0.867 h 3.125 V 8.866 l 0.467,0.801 h 2.527 V 4.4 H 95.944 V 5 L 95.612,4.4 H 93.085 V 5 L 92.752,4.4 H 89.29 A 2.88821,2.88821 0 0 0 87.76,4.732 V 4.4 H 85.364 V 4.732 A 1.63118,1.63118 0 0 0 84.366,4.4 H 75.65 L 75.051,5.732 74.454,4.4 H 71.726 V 5 L 71.392,4.4 H 69.064 L 68,6.934 v 1.601 l 1.396,-3.333 h 1.332 l 1.53,3.6 v -3.6 h 1.464 l 1.197,2.6 1.064,-2.6 h 1.529 V 9 H 76.647 V 6 l -1.33,3 H 74.52 L 73.19,6 V 9 H 71.328 L 70.995,8.134 H 69.133 L 68.799,9 H 68 v 0.732 h 1.529 l 0.334,-0.866 h 0.799 l 0.332,0.866 h 2.994 V 9.066 l 0.266,0.666 z M 87.893,5.6 a 1.689,1.689 0 0 1 1.396,-0.466 h 0.865 V 6 H 89.29 a 0.88186,0.88186 0 0 0 -0.666,0.2 1.3311,1.3311 0 0 0 -0.267,0.866 1.13491,1.13491 0 0 0 0.267,0.867 0.92838,0.92838 0 0 0 0.599,0.199 h 0.399 l 1.265,-3 h 1.33 l 1.53,3.6 v -3.6 h 1.397 L 96.741,7.8 V 5.133 h 0.931 V 8.932 H 96.408 L 94.68,6.066 V 8.931 H 92.817 L 92.483,8.066 H 90.62 L 90.287,8.931 H 89.223 A 1.86382,1.86382 0 0 1 87.893,8.533 1.855,1.855 0 0 1 87.426,7.066 1.95111,1.95111 0 0 1 87.893,5.6 Z M 86.029,5.2 h 0.932 V 9 h -0.932 z m -4.125,0 h 2.063 a 1.69464,1.69464 0 0 1 1.064,0.2 0.95821,0.95821 0 0 1 0.466,0.868 1.00009,1.00009 0 0 1 -0.666,1 0.8418,0.8418 0 0 1 0.466,0.332 1.0042,1.0042 0 0 1 0.133,0.668 V 9 H 84.498 V 8.533 A 1.43556,1.43556 0 0 0 84.365,7.8 C 84.232,7.667 84.032,7.667 83.7,7.667 H 82.702 V 9.066 H 81.77 V 5.2 Z m -3.658,0 H 81.24 V 6 h -2.129 v 0.667 h 2.062 v 0.8 H 79.111 V 8.2 H 81.24 V 9 h -2.994 z"
         fill="#ffffff"
         id="path23" />
      <path
         d="m 98.271,10.934 a 1.75342,1.75342 0 0 0 -1.131,0.334 v -0.334 h -2.46 a 1.36479,1.36479 0 0 0 -1.064,0.334 v -0.334 h -4.391 v 0.334 A 2.18314,2.18314 0 0 0 88.026,10.934 H 85.1 v 0.334 a 2.00141,2.00141 0 0 0 -1.265,-0.334 h -3.259 l -0.732,0.801 -0.73,-0.801 H 74.257 V 16.2 h 4.79 l 0.8,-0.802 0.731,0.802 h 2.926 v -1.267 h 0.267 a 2.79332,2.79332 0 0 0 1.265,-0.201 v 1.4 h 2.461 v -1.4 h 0.133 c 0.134,0 0.134,0 0.134,0.134 v 1.2 h 7.383 a 2.11235,2.11235 0 0 0 1.198,-0.334 v 0.334 h 2.329 a 2.96989,2.96989 0 0 0 1.33,-0.267 v -1 a 1.34282,1.34282 0 0 1 -1.197,0.466 h -1.73 v -0.6 h 1.73 c 0.199,0 0.266,0 0.332,-0.066 a 0.34738,0.34738 0 0 0 0.133,-0.268 0.35237,0.35237 0 0 0 -0.133,-0.268 C 99.068,14 99.002,14 98.802,14 c -0.864,0 -1.929,0 -1.929,-1.2 a 1.12081,1.12081 0 0 1 1.264,-1.133 h 1.797 V 10.934 Z M 83.701,14.2 h -1.064 v 1.267 H 80.908 L 79.775,14.2 78.644,15.467 h -3.593 v -3.8 h 3.659 l 1.131,1.267 1.131,-1.267 h 2.861 c 0.732,0 1.529,0.199 1.529,1.267 C 85.297,14 84.499,14.2 83.701,14.2 Z m 5.123,-0.533 v 0 c 0.133,0.133 0.266,0.267 0.398,0.399 a 0.99684,0.99684 0 0 1 0.133,0.666 v 0.733 H 88.423 V 15 A 1.43189,1.43189 0 0 0 88.29,14.268 0.87911,0.87911 0 0 0 87.625,14.067 h -0.998 v 1.4 h -0.933 v -3.8 h 2.063 a 1.70475,1.70475 0 0 1 1.064,0.199 0.954,0.954 0 0 1 0.466,0.866 0.99927,0.99927 0 0 1 -0.666,1 0.301,0.301 0 0 0 0.203,-0.065 z m 4.058,-1.2 h -2.129 v 0.667 h 2.063 v 0.8 h -2.063 v 0.733 h 2.129 v 0.8 h -2.993 v -3.8 h 2.993 z m 2.328,3 h -1.73 v -0.8 h 1.729 a 0.73186,0.73186 0 0 0 0.399,-0.065 0.35507,0.35507 0 0 0 0.134,-0.269 0.34931,0.34931 0 0 0 -0.134,-0.267 C 95.543,14 95.477,14 95.277,14 c -0.864,0 -1.93,0 -1.93,-1.2 a 1.12134,1.12134 0 0 1 1.264,-1.133 h 1.797 v 0.8 h -1.664 a 0.49922,0.49922 0 0 0 -0.332,0.066 0.34367,0.34367 0 0 0 -0.135,0.267 c 0,0.134 0.068,0.267 0.201,0.267 a 2.82659,2.82659 0 0 0 0.332,0.067 h 0.467 a 1.36818,1.36818 0 0 1 1.064,0.333 0.97331,0.97331 0 0 1 0.266,0.801 c 0,0.798 -0.531,1.199 -1.397,1.199 z m 1.065,-2 c 0,-0.069 -0.067,-0.134 0,0 z"
         fill="#ffffff"
         id="path24" />
      <path
         d="m 88.158,12.533 a 0.84917,0.84917 0 0 0 -0.399,-0.066 h -1.131 v 0.866 h 1.063 a 1.01016,1.01016 0 0 0 0.467,-0.065 0.368,0.368 0 0 0 0.199,-0.334 0.47647,0.47647 0 0 0 -0.199,-0.401 z"
         fill="#ffffff"
         id="path25" />
      <polygon
         points="79.177,13.602 78.18,12.467 75.917,12.467 75.917,13.134 77.913,13.134 77.913,13.934 75.917,13.934 75.917,14.667 78.113,14.667 "
         fill="#ffffff"
         id="polygon25" />
      <path
         d="M 97.938,12.533 A 0.35149,0.35149 0 0 0 97.805,12.8 c 0,0.134 0.067,0.267 0.199,0.267 a 2.99006,2.99006 0 0 0 0.333,0.067 h 0.466 a 1.14048,1.14048 0 0 1 0.998,0.333 0.06464,0.06464 0 0 1 0.066,0.066 v -1.066 h -1.663 a 0.40351,0.40351 0 0 0 -0.266,0.066 z"
         fill="#ffffff"
         id="path26" />
      <polygon
         points="81.705,12.066 80.309,13.602 81.705,15.134 "
         fill="#ffffff"
         id="polygon26" />
      <path
         d="M 83.768,12.467 H 82.637 V 13.4 h 1.197 a 0.48924,0.48924 0 0 0 0.532,-0.533 c 0,-0.265 -0.264,-0.4 -0.598,-0.4 z"
         fill="#ffffff"
         id="path27" />
    </g>
  </g>
  <g
     id="g31"
     transform="matrix(1.4989491,0,0,1.4989491,0.0105468,0.0106378)">
    <path
       d="M 131.6,0 H 103.602 A 1.72089,1.72089 0 0 0 102,1.6 v 16 a 2.12,2.12 0 0 0 2.398,2.399 h 27.201 A 2.1203,2.1203 0 0 0 133.998,17.6 V 2.4 A 2.1199,2.1199 0 0 0 131.6,0 Z"
       fill="#f4f4f4"
       id="path28" />
    <path
       d="M 111.934,20 H 131.6 a 2.12,2.12 0 0 0 2.399,-2.398 V 8.066 c 0,0 -4.8,8.401 -22.065,11.934 z"
       fill="#d97b16"
       id="path29" />
    <path
       d="m 112.398,9.8 h 0.269 l 0.866,1.334 v 0 V 9.8 h 0.199 v 1.6 h -0.267 l -0.866,-1.334 v 0 1.334 h -0.201 z m 1.802,0 h 1.065 V 10 h -0.799 v 0.467 h 0.799 v 0.2 h -0.799 V 11.2 h 0.866 v 0.198 h -1.067 v -1.6 z m 1.734,0.2 H 115.4 V 9.8 h 1.268 V 10 h -0.533 v 1.398 h -0.199 V 10 Z m 0.798,-0.2 h 0.201 l 0.332,1.267 v 0 l 0.4,-1.267 h 0.268 l 0.398,1.267 v 0 L 118.664,9.8 h 0.199 l -0.468,1.601 h -0.198 l -0.399,-1.334 v 0 l -0.4,1.334 h -0.199 z m 3.133,1.667 a 0.50361,0.50361 0 0 1 -0.333,-0.066 0.90039,0.90039 0 0 1 -0.267,-0.2 0.93631,0.93631 0 0 1 -0.201,-0.267 0.61128,0.61128 0 0 1 -0.065,-0.332 0.613,0.613 0 0 1 0.065,-0.334 c 0.067,-0.134 0.067,-0.201 0.201,-0.268 a 0.9042,0.9042 0 0 1 0.267,-0.2 0.61468,0.61468 0 0 1 0.333,-0.065 0.51017,0.51017 0 0 1 0.334,0.065 0.94658,0.94658 0 0 1 0.267,0.2 0.91051,0.91051 0 0 1 0.2,0.268 0.60507,0.60507 0 0 1 0.066,0.334 0.60336,0.60336 0 0 1 -0.066,0.332 0.93211,0.93211 0 0 1 -0.2,0.267 0.91432,0.91432 0 0 1 -0.267,0.2 c -0.066,-0.003 -0.2,0.066 -0.334,0.066 z m 0,-0.199 a 0.40678,0.40678 0 0 0 0.268,-0.067 c 0.066,-0.066 0.133,-0.066 0.199,-0.134 0.066,-0.066 0.066,-0.133 0.134,-0.199 0,-0.066 0.066,-0.133 0.066,-0.266 a 0.41029,0.41029 0 0 0 -0.066,-0.269 c 0,-0.065 -0.067,-0.133 -0.134,-0.199 C 120.266,10.067 120.199,10 120.133,10 120.067,9.934 119.999,9.934 119.865,9.934 A 0.40351,0.40351 0 0 0 119.599,10 c -0.067,0.066 -0.134,0.066 -0.201,0.134 -0.066,0.066 -0.066,0.134 -0.133,0.199 0,0.065 -0.066,0.134 -0.066,0.269 a 0.4062,0.4062 0 0 0 0.066,0.266 c 0,0.066 0.066,0.133 0.133,0.199 0.067,0.067 0.134,0.134 0.201,0.134 0.067,-0.001 0.2,0.067 0.266,0.067 z M 120.999,9.8 h 0.601 c 0.133,0 0.199,0 0.267,0.066 C 121.934,9.933 122,9.933 122,10 c 0.067,0.066 0.067,0.066 0.067,0.134 v 0.267 A 0.22973,0.22973 0 0 0 122,10.534 c -0.066,0.067 -0.066,0.067 -0.134,0.067 a 0.24021,0.24021 0 0 0 -0.134,0.065 L 122.2,11.4 h -0.267 l -0.4,-0.733 h -0.268 v 0.731 h -0.199 z m 0.267,0.667 h 0.401 c 0.067,0 0.066,0 0.134,-0.066 l 0.066,-0.066 V 10.067 A 0.06609,0.06609 0 0 0 121.8,10 0.209,0.209 0 0 1 121.666,9.934 h -0.401 v 0.533 z M 122.398,9.8 h 0.201 v 0.667 0 L 123.331,9.8 h 0.333 l -0.8,0.733 0.867,0.865 H 123.4 l -0.734,-0.799 v 0 0.799 h -0.2 v -1.6 z"
       id="path30" />
    <path
       d="m 104.8,4.8 h 1.533 a 2.75717,2.75717 0 0 1 0.733,0.134 1.29069,1.29069 0 0 1 0.601,0.332 0.97138,0.97138 0 0 1 0.399,0.601 1.81817,1.81817 0 0 1 0.134,0.865 1.835,1.835 0 0 1 -0.2,0.867 1.47847,1.47847 0 0 1 -0.467,0.601 2.06616,2.06616 0 0 1 -0.667,0.333 2.87872,2.87872 0 0 1 -0.732,0.134 h -1.399 V 4.8 Z M 106,8 a 1.88775,1.88775 0 0 0 0.602,-0.066 3.43527,3.43527 0 0 0 0.465,-0.199 1.80191,1.80191 0 0 0 0.334,-0.4 1.33479,1.33479 0 0 0 0.133,-0.6 1.9486,1.9486 0 0 0 -0.133,-0.601 c -0.067,-0.201 -0.2,-0.268 -0.267,-0.399 a 0.60277,0.60277 0 0 0 -0.467,-0.2 1.67578,1.67578 0 0 0 -0.601,-0.066 h -0.601 V 8 Z m 2.934,-3.2 h 0.668 v 3.8 h -0.668 z m 3.399,0.8 a 0.35214,0.35214 0 0 0 -0.267,-0.199 0.85318,0.85318 0 0 0 -0.399,-0.066 h -0.2 c -0.066,0 -0.134,0.065 -0.199,0.065 -0.067,0.066 -0.134,0.066 -0.134,0.133 a 0.24311,0.24311 0 0 0 -0.067,0.199 0.34577,0.34577 0 0 0 0.135,0.268 1.42489,1.42489 0 0 0 0.333,0.2 c 0.134,0.065 0.267,0.065 0.467,0.133 a 3.53715,3.53715 0 0 1 0.467,0.2 0.78673,0.78673 0 0 1 0.333,0.333 1.27131,1.27131 0 0 1 0.135,0.534 1.24515,1.24515 0 0 1 -0.135,0.533 1.68331,1.68331 0 0 1 -0.333,0.398 0.60465,0.60465 0 0 1 -0.467,0.2 1.50141,1.50141 0 0 1 -0.533,0.065 1.94111,1.94111 0 0 1 -0.667,-0.133 1.56237,1.56237 0 0 1 -0.6,-0.4 l 0.533,-0.467 a 0.66154,0.66154 0 0 0 0.332,0.268 0.9042,0.9042 0 0 0 0.401,0.136 h 0.267 c 0.066,0 0.133,-0.066 0.199,-0.066 0.067,-0.066 0.133,-0.066 0.133,-0.134 A 0.24216,0.24216 0 0 0 112.134,7.6 0.50582,0.50582 0 0 0 112.001,7.268 1.4463,1.4463 0 0 0 111.667,7.067 0.98217,0.98217 0 0 0 111.2,6.934 C 111.066,6.868 110.867,6.8 110.734,6.735 A 0.797,0.797 0 0 1 110.4,6.401 1.26688,1.26688 0 0 1 110.267,5.868 1.256,1.256 0 0 1 110.4,5.335 a 0.79468,0.79468 0 0 1 0.334,-0.333 1.013,1.013 0 0 1 0.466,-0.2 1.48535,1.48535 0 0 1 0.534,-0.066 1.86946,1.86946 0 0 1 0.6,0.066 1.16677,1.16677 0 0 1 0.533,0.333 v 0 z m 3.801,0.067 a 1.77336,1.77336 0 0 0 -0.4,-0.333 0.85521,0.85521 0 0 0 -0.4,-0.066 1.25988,1.25988 0 0 0 -0.533,0.133 c -0.133,0.066 -0.267,0.199 -0.4,0.267 a 1.07943,1.07943 0 0 0 -0.266,0.467 1.47733,1.47733 0 0 0 -0.066,0.533 1.87861,1.87861 0 0 0 0.066,0.601 1.087,1.087 0 0 0 0.266,0.467 1.47983,1.47983 0 0 0 0.401,0.267 1.252,1.252 0 0 0 0.533,0.134 1.215,1.215 0 0 0 0.467,-0.134 1.68708,1.68708 0 0 0 0.399,-0.333 l 0.533,0.398 a 2.10508,2.10508 0 0 1 -0.6,0.533 1.67248,1.67248 0 0 1 -0.8,0.135 3.22167,3.22167 0 0 1 -0.8,-0.135 1.36055,1.36055 0 0 1 -0.667,-0.398 1.56894,1.56894 0 0 1 -0.4,-0.602 2.91838,2.91838 0 0 1 -0.133,-0.8 3.31335,3.31335 0 0 1 0.133,-0.866 5.87649,5.87649 0 0 1 0.4,-0.666 1.12135,1.12135 0 0 1 0.667,-0.4 3.31268,3.31268 0 0 1 0.8,-0.133 2.78128,2.78128 0 0 1 0.731,0.133 c 0.269,0.066 0.401,0.267 0.602,0.467 v 0 z M 121.266,4.8 h 0.801 l 1.066,2.867 1.066,-2.867 h 0.732 l -1.533,3.8 h -0.601 z m 4.066,0 h 2.533 v 0.6 h -1.866 v 0.933 h 1.733 v 0.601 h -1.733 V 8 h 1.935 v 0.6 h -2.602 z m 3.268,0 h 1.334 a 1.47724,1.47724 0 0 1 0.532,0.066 c 0.2,0.065 0.333,0.065 0.468,0.2 a 0.78773,0.78773 0 0 1 0.332,0.332 1.27256,1.27256 0 0 1 0.133,0.535 0.99027,0.99027 0 0 1 -0.199,0.666 0.8221,0.8221 0 0 1 -0.667,0.334 l 1,1.666 h -0.865 l -0.868,-1.6 h -0.467 V 8.6 h -0.666 z m 1.265,1.6 h 0.268 a 0.39885,0.39885 0 0 0 0.266,-0.067 C 130.466,6.268 130.533,6.268 130.6,6.2 a 0.40353,0.40353 0 0 0 0.066,-0.267 c 0,-0.135 0,-0.201 -0.066,-0.268 -0.067,-0.066 -0.134,-0.134 -0.201,-0.134 -0.065,-0.066 -0.133,-0.066 -0.266,-0.066 h -0.801 v 1.066 h 0.533 z"
       id="path31" />
    <circle
       cx="119.199"
       cy="6.6669898"
       r="2"
       fill="#d97b16"
       id="circle31" />
  </g>
</svg>
