<?xml version="1.0" encoding="utf-8"?>
<!-- Generator: Adobe Illustrator 26.0.1, SVG Export Plug-In . SVG Version: 6.00 Build 0)  -->
<svg version="1.1" xmlns="http://www.w3.org/2000/svg" xmlns:xlink="http://www.w3.org/1999/xlink" x="0px" y="0px"
	 viewBox="0 0 14596.9 4572.1" style="enable-background:new 0 0 14596.9 4572.1;" xml:space="preserve">
<style type="text/css">
	.st0{fill:#FFFFFF;}
	.st1{fill:#4A5E68;}
	.st2{fill:#FFC107;}
	.st3{fill:#455A64;}
	.st4{fill:#2096F4;}
	.st5{fill:#4F4D4D;}
</style>
<g id="Layer_1">
</g>
<g id="Layer_2">
	<g>
		<rect class="st0" width="14596.9" height="4572.1"/>
		<g>
			<g>
				<g>
					<path class="st1" d="M13483.7,4009.8c-350.9,0-636.7-285.4-636.7-636.7v-383.3c0-350.9,285.4-636.7,636.7-636.7
						c351.3,0,636.7,285.4,636.7,636.7v383.3C14120.4,3724,13834.9,4009.8,13483.7,4009.8z M13483.7,2608
						c-210.5,0-382.2,171.3-382.2,382.2v383.3c0,210.5,171.3,382.2,382.2,382.2c210.9,0,382.2-171.3,382.2-382.2v-383.3
						C13865.8,2779.6,13694.6,2608,13483.7,2608z"/>
				</g>
				<g>
					<path class="st2" d="M12905.8,3266.3h1155.8c119.9,0,217.2,104.9,217.2,234.3v737.5c0,129.4-97.2,234.3-217.2,234.3h-1155.8
						c-119.9,0-217.2-104.9-217.2-234.3v-737.5C12688.6,3371.2,12785.8,3266.3,12905.8,3266.3z"/>
				</g>
				<g>
					<path class="st3" d="M13696,3709.5c0-117.5-95.2-212.3-212.3-212.3c-117.1,0-212.3,95.2-212.3,212.3c0,79.5,43.5,148.6,108,185
						v270.3c0,57.5,47.2,104.3,104.3,104.3c57.1,0,104.3-47.2,104.3-104.3v-270.3C13652.6,3858.1,13696,3789,13696,3709.5z"/>
				</g>
			</g>
			<g>
				<g>
					<path class="st4" d="M14002.8,99.6H8362.7c-152.5,0-276.1,123.6-276.1,276.1v3586.4c0,152.5,123.6,276.1,276.1,276.1h3688.8
						c-138.6-241.6-217.5-520.9-217.5-819.1c0-911,738.5-1649.8,1649.8-1649.8c288.2,0,559.3,74,795.1,204V375.7
						C14278.9,223.2,14155.3,99.6,14002.8,99.6z M10046.8,3000.5c-41.7,41.7-99.1,67.4-162.6,67.4h-974.1
						c-129.5,0-243.3-106-240.3-235.5c1.4-61.3,26.8-116.6,67.3-157.1c41.7-41.7,99.1-67.4,162.6-67.4l974.1,0
						c129.5,0,243.3,106,240.3,235.5C10112.6,2904.7,10087.2,2960.1,10046.8,3000.5z"/>
				</g>
				<g>
					<rect x="8086.7" y="589.9" class="st5" width="6192.2" height="980.6"/>
				</g>
			</g>
			<g>
				<path class="st4" d="M1461.3,1506.9c0,92.9-39.4,168.4-118.2,226.5c-78.8,58.1-185.7,87.1-320.9,87.1
					c-78.1,0-146.3-6.9-204.3-20.6c-58.1-13.7-112.5-31.2-163.1-52.3v-226.2h26.6c50.3,40.1,106.5,71,168.8,92.5
					c62.3,21.5,122.2,32.3,179.6,32.3c14.8,0,34.2-1.3,58.3-3.8c24.1-2.5,43.7-6.8,58.9-12.7c18.6-7.6,33.9-17.1,45.9-28.5
					c12-11.4,18-28.3,18-50.7c0-20.7-8.8-38.5-26.3-53.5c-17.5-15-43.2-26.5-77-34.5c-35.5-8.4-73-16.4-112.4-23.8
					c-39.5-7.4-76.6-16.8-111.2-28.2c-79.4-25.8-136.5-60.7-171.4-104.8c-34.9-44.1-52.3-98.9-52.3-164.4
					c0-87.8,39.4-159.5,118.2-215.1c78.8-55.5,180-83.3,303.8-83.3c62.1,0,123.4,6,184.1,18.1c60.6,12,113.1,27.1,157.4,45.3v217.3
					h-26c-38-30.4-84.6-55.8-139.7-76.3c-55.1-20.5-111.4-30.7-168.8-30.7c-20.3,0-40.5,1.4-60.5,4.1c-20.1,2.7-39.4,7.9-58,15.5
					c-16.5,6.3-30.6,15.9-42.4,28.8c-11.8,12.9-17.7,27.6-17.7,44c0,24.9,9.5,44,28.5,57.3c19,13.3,54.9,25.5,107.7,36.4
					c34.6,7.2,67.9,14.2,99.8,20.9c31.9,6.8,66.2,16.1,103,27.9c72.2,23.7,125.5,55.9,160,96.6
					C1444.1,1389,1461.3,1441.9,1461.3,1506.9z"/>
				<path class="st4" d="M2046,1728.1c-12.3,9.3-27.5,20.5-45.6,33.6c-18.2,13.1-35.3,23.4-51.3,31c-22.4,10.1-45.6,17.6-69.7,22.5
					c-24.1,4.8-50.5,7.3-79.2,7.3c-67.6,0-124.2-20.9-169.8-62.7c-45.6-41.8-68.4-95.2-68.4-160.3c0-52,11.6-94.4,34.8-127.3
					c23.2-32.9,56.2-58.9,98.8-77.9c42.2-19,94.6-32.5,157.1-40.5c62.5-8,127.3-13.9,194.5-17.7v-3.8c0-39.3-16.1-66.4-48.2-81.4
					c-32.1-15-79.4-22.5-141.9-22.5c-37.6,0-77.7,6.7-120.4,20c-42.7,13.3-73.3,23.6-91.9,30.7h-20.9v-171.7
					c24.1-6.3,63.2-13.8,117.5-22.5c54.3-8.6,108.7-13,163.1-13c129.7,0,223.3,20,281,59.9c57.6,39.9,86.5,102.5,86.5,187.9v484
					H2046V1728.1z M2046,1617.3v-147.8c-30.8,2.5-64.2,6-100.1,10.4c-35.9,4.4-63.2,9.6-81.7,15.5c-22.8,7.2-40.2,17.6-52.3,31.3
					c-12.1,13.7-18.1,31.7-18.1,54c0,14.7,1.3,26.7,3.8,36c2.5,9.3,8.9,18.1,19,26.5c9.7,8.4,21.3,14.6,34.8,18.6
					c13.5,4,34.6,6,63.4,6c22.8,0,45.9-4.6,69.4-13.9C2007.7,1644.7,2028.3,1632.5,2046,1617.3z"/>
				<path class="st4" d="M2943.2,984.9h-17.1c-10.1-3-23.3-6.3-39.5-10.1s-33.6-5.7-52.1-5.7c-44.6,0-74.9,8-90.7,24.1
					c-15.8,16.1-23.7,47.1-23.7,93.1v5.7h175.5v154.6h-167.9v556.9H2499v-556.9h-97.6V1092h97.6v-19.6c0-87,23.1-152.3,69.4-195.8
					c46.2-43.5,116.3-65.3,210-65.3c33.8,0,64.4,1.2,91.9,3.5c27.4,2.3,51.7,5.4,72.9,9.2V984.9z"/>
				<path class="st4" d="M3730.7,1489.8h-522c3.4,55.8,24.6,98.4,63.7,128c39.1,29.6,96.6,44.3,172.6,44.3c48.2,0,94.8-8.7,140-26
					c45.2-17.3,80.9-35.9,107.1-55.8h25.3v183.1c-51.5,20.7-100.1,35.7-145.7,45c-45.6,9.3-96.1,13.9-151.4,13.9
					c-142.8,0-252.2-32.1-328.2-96.3c-76-64.2-114-155.6-114-274.3c0-117.4,36-210.4,108-279.1c72-68.6,170.7-103,296.2-103
					c115.7,0,202.7,29.3,261,87.8c58.3,58.5,87.4,142.7,87.4,252.5V1489.8z M3503.9,1356.2c-1.3-47.7-13.1-83.6-35.5-107.7
					c-22.4-24.1-57.2-36.1-104.5-36.1c-43.9,0-80,11.4-108.3,34.2c-28.3,22.8-44.1,59.4-47.5,109.6H3503.9z"/>
				<path class="st4" d="M5126.4,1157.9c0,42.2-7.4,83.5-22.2,123.9c-14.8,40.3-35.9,74.2-63.4,101.7
					c-37.6,37.2-79.5,65.3-125.8,84.3c-46.2,19-103.8,28.5-172.6,28.5H4591v307.3h-243.3V860.1h400.4c60,0,110.6,5.2,151.7,15.5
					c41.2,10.4,77.6,25.9,109.3,46.6c38,24.9,67,56.8,87.1,95.7C5116.3,1056.7,5126.4,1103.4,5126.4,1157.9z M4874.9,1163.3
					c0-26.6-7.2-49.4-21.5-68.6c-14.4-19.2-31-32.6-50.1-40.1c-25.3-10.1-50.1-15.7-74.1-16.8c-24.1-1-56.2-1.6-96.3-1.6H4591v281.9
					h69.7c41.4,0,75.5-2.5,102.3-7.6c26.8-5.1,49.3-15.2,67.5-30.3c15.6-13.5,26.9-29.6,33.9-48.4
					C4871.4,1213.1,4874.9,1190.2,4874.9,1163.3z"/>
				<path class="st4" d="M5716.9,1728.1c-12.3,9.3-27.5,20.5-45.6,33.6c-18.2,13.1-35.3,23.4-51.3,31
					c-22.4,10.1-45.6,17.6-69.7,22.5c-24.1,4.8-50.5,7.3-79.2,7.3c-67.6,0-124.2-20.9-169.8-62.7c-45.6-41.8-68.4-95.2-68.4-160.3
					c0-52,11.6-94.4,34.8-127.3c23.2-32.9,56.2-58.9,98.8-77.9c42.2-19,94.6-32.5,157.1-40.5c62.5-8,127.3-13.9,194.5-17.7v-3.8
					c0-39.3-16.1-66.4-48.1-81.4c-32.1-15-79.4-22.5-141.9-22.5c-37.6,0-77.7,6.7-120.4,20c-42.7,13.3-73.3,23.6-91.9,30.7h-20.9
					v-171.7c24.1-6.3,63.2-13.8,117.5-22.5c54.3-8.6,108.7-13,163.1-13c129.7,0,223.3,20,281,59.9c57.6,39.9,86.5,102.5,86.5,187.9
					v484h-226.2V1728.1z M5716.9,1617.3v-147.8c-30.8,2.5-64.2,6-100.1,10.4c-35.9,4.4-63.2,9.6-81.7,15.5
					c-22.8,7.2-40.2,17.6-52.3,31.3c-12.1,13.7-18.1,31.7-18.1,54c0,14.7,1.3,26.7,3.8,36c2.5,9.3,8.9,18.1,19,26.5
					c9.7,8.4,21.3,14.6,34.8,18.6c13.5,4,34.6,6,63.4,6c22.8,0,45.9-4.6,69.4-13.9C5678.5,1644.7,5699.1,1632.5,5716.9,1617.3z"/>
				<path class="st4" d="M6473.6,1551.9L6636,1092h234.6l-395.3,972.5h-247.6l113.1-266.5L6064,1092h239.5L6473.6,1551.9z"/>
			</g>
			<g>
				<path class="st4" d="M1126.4,3131.8h-522c3.4,55.8,24.6,98.4,63.7,128c39.1,29.6,96.6,44.4,172.6,44.4c48.2,0,94.8-8.7,140-26
					c45.2-17.3,80.9-35.9,107.1-55.8h25.3v183.1c-51.5,20.7-100.1,35.7-145.7,45s-96.1,13.9-151.4,13.9
					c-142.8,0-252.2-32.1-328.2-96.3c-76-64.2-114-155.6-114-274.3c0-117.4,36-210.4,108-279.1c72-68.6,170.7-103,296.2-103
					c115.7,0,202.7,29.3,261,87.8s87.4,142.6,87.4,252.5V3131.8z M899.6,2998.2c-1.3-47.7-13.1-83.6-35.5-107.7
					c-22.4-24.1-57.2-36.1-104.5-36.1c-43.9,0-80,11.4-108.3,34.2c-28.3,22.8-44.1,59.3-47.5,109.6H899.6z"/>
				<path class="st4" d="M2038.1,2684.5h-294.6v760.9h-243.3v-760.9h-294.6v-182.5h832.5V2684.5z"/>
				<path class="st4" d="M2687.5,2951.3h-20.2c-9.7-3.4-25.3-5.9-46.8-7.6c-21.5-1.7-39.4-2.5-53.7-2.5c-32.4,0-61.1,2.1-86,6.3
					c-24.9,4.2-51.6,11.4-80.3,21.5v476.4h-228.7V2734h228.7v104.5c50.1-43.1,93.8-71.7,130.8-85.8c37.1-14.2,71.2-21.2,102.4-21.2
					c8,0,17.1,0.2,27.2,0.6c10.1,0.4,19,1.1,26.6,1.9V2951.3z"/>
				<path class="st4" d="M3525.7,3445.4H3297v-78.6c-42.2,32.1-80.8,56.5-115.8,73.2c-35,16.7-76.8,25-125.3,25
					c-78.5,0-138.9-22.6-181.3-67.8c-42.4-45.2-63.6-111.9-63.6-200.2V2734h228.7v352.9c0,35.9,1.2,65.8,3.5,89.6
					c2.3,23.9,7.7,43.6,16.2,59.3c8,15.6,20.2,27,36.4,34.2c16.2,7.2,39,10.8,68.1,10.8c19.4,0,41-3.6,64.6-10.8
					c23.6-7.2,46.5-17.7,68.4-31.7V2734h228.7V3445.4z"/>
				<path class="st4" d="M4359.5,3219.9c0,73.5-32.9,132.7-98.8,177.7c-65.9,45-156.1,67.5-270.5,67.5c-63.4,0-120.8-5.9-172.3-17.7
					c-51.5-11.8-92.9-24.9-124.2-39.3v-187.5h20.9c11.4,8,24.6,16.8,39.6,26.3c15,9.5,36.2,19.7,63.7,30.7
					c23.6,9.7,50.5,18.1,80.5,25c30,7,62.1,10.4,96.3,10.4c44.8,0,77.9-4.9,99.5-14.9c21.5-9.9,32.3-24.6,32.3-44
					c0-17.3-6.3-29.9-19-37.7c-12.7-7.8-36.7-15.3-72.2-22.5c-16.9-3.8-39.8-7.9-68.7-12.3c-28.9-4.4-55.2-9.8-78.9-16.1
					c-64.6-16.9-112.6-43.2-143.8-78.9c-31.3-35.7-46.9-80.2-46.9-133.4c0-68.4,32.4-125.3,97.2-170.7
					c64.8-45.4,153.4-68.1,265.8-68.1c53.2,0,104.2,5.4,153,16.1c48.8,10.8,86.9,22.3,114.4,34.5v179.9h-19.6
					c-33.8-23.2-72.3-42.1-115.6-56.7c-43.3-14.6-87.1-21.9-131.5-21.9c-36.7,0-67.7,5.1-92.8,15.2c-25.1,10.1-37.7,24.5-37.7,43.1
					c0,16.9,5.7,29.8,17.1,38.6c11.4,8.9,38.2,17.7,80.5,26.6c23.2,4.6,48.2,9.2,75.1,13.6c26.8,4.4,53.7,10,80.8,16.8
					c60,15.6,104.3,40.2,133,73.8C4345.1,3127.7,4359.5,3169.6,4359.5,3219.9z"/>
				<path class="st4" d="M4965.8,3439.2c-24.5,6.3-50.5,11.2-77.9,14.8c-27.5,3.6-61,5.4-100.7,5.4c-88.7,0-154.7-18-198-53.8
					c-43.3-35.9-64.9-97.4-64.9-184.4v-332.6h-93.8V2734h93.8v-203.4h228.7V2734h212.9v154.6h-212.9v252.5c0,25,0.2,46.7,0.6,65.4
					c0.4,18.6,3.8,35.3,10.1,50.1c5.9,14.8,16.3,26.6,31.3,35.2c14.9,8.7,36.7,13,65.4,13c11.8,0,27.3-2.5,46.4-7.6
					c19.2-5.1,32.5-9.7,40.1-13.9h19V3439.2z"/>
				<path class="st4" d="M5347.2,3445.4h-236.9v-249h236.9V3445.4z"/>
				<path class="st4" d="M6279.8,3445.4h-228.7v-78.6c-42.2,32.1-80.8,56.5-115.8,73.2c-35,16.7-76.8,25-125.3,25
					c-78.5,0-138.9-22.6-181.3-67.8c-42.4-45.2-63.6-111.9-63.6-200.2V2734h228.7v352.9c0,35.9,1.2,65.8,3.5,89.6
					c2.3,23.9,7.7,43.6,16.2,59.3c8,15.6,20.2,27,36.4,34.2c16.2,7.2,39,10.8,68.1,10.8c19.4,0,41-3.6,64.6-10.8
					c23.6-7.2,46.5-17.7,68.4-31.7V2734h228.7V3445.4z"/>
				<path class="st4" d="M7113.5,3219.9c0,73.5-32.9,132.7-98.8,177.7c-65.9,45-156.1,67.5-270.5,67.5c-63.4,0-120.8-5.9-172.3-17.7
					c-51.5-11.8-92.9-24.9-124.2-39.3v-187.5h20.9c11.4,8,24.6,16.8,39.6,26.3c15,9.5,36.2,19.7,63.7,30.7
					c23.6,9.7,50.5,18.1,80.5,25c30,7,62.1,10.4,96.3,10.4c44.8,0,77.9-4.9,99.5-14.9c21.5-9.9,32.3-24.6,32.3-44
					c0-17.3-6.3-29.9-19-37.7c-12.7-7.8-36.7-15.3-72.2-22.5c-16.9-3.8-39.8-7.9-68.7-12.3c-28.9-4.4-55.2-9.8-78.9-16.1
					c-64.6-16.9-112.6-43.2-143.8-78.9c-31.3-35.7-46.9-80.2-46.9-133.4c0-68.4,32.4-125.3,97.2-170.7
					c64.8-45.4,153.4-68.1,265.8-68.1c53.2,0,104.2,5.4,153,16.1c48.8,10.8,86.9,22.3,114.4,34.5v179.9h-19.6
					c-33.8-23.2-72.3-42.1-115.6-56.7c-43.3-14.6-87.1-21.9-131.5-21.9c-36.7,0-67.7,5.1-92.8,15.2c-25.1,10.1-37.7,24.5-37.7,43.1
					c0,16.9,5.7,29.8,17.1,38.6c11.4,8.9,38.2,17.7,80.5,26.6c23.2,4.6,48.2,9.2,75.1,13.6c26.8,4.4,53.7,10,80.8,16.8
					c60,15.6,104.3,40.2,133,73.8C7099.2,3127.7,7113.5,3169.6,7113.5,3219.9z"/>
			</g>
		</g>
	</g>
</g>
</svg>
